<svg xmlns="http://www.w3.org/2000/svg" viewBox="0 0 512 512">
  <defs>
    <linearGradient id="bg" x1="0" y1="0" x2="0" y2="1">
      <stop offset="0%" stop-color="#1e3a5f"/>
      <stop offset="100%" stop-color="#2563eb"/>
    </linearGradient>
  </defs>
  <rect width="512" height="512" rx="96" fill="url(#bg)"/>
  <polygon points="80,330 190,150 300,330" fill="#94a3b8" opacity="0.5"/>
  <polygon points="160,190 190,150 220,190" fill="#fff" opacity="0.7"/>
  <polygon points="200,330 340,110 480,330" fill="#cbd5e1" opacity="0.7"/>
  <polygon points="300,160 340,110 380,160" fill="#fff" opacity="0.9"/>
  <rect x="210" y="280" width="100" height="80" rx="4" fill="#ea580c"/>
  <polygon points="206,284 260,238 314,284" fill="#c2410c"/>
  <rect x="244" y="318" width="28" height="42" rx="2" fill="#1e3a5f"/>
  <circle cx="266" cy="338" r="2.5" fill="#fbbf24"/>
  <rect x="218" y="294" width="20" height="16" rx="2" fill="#fcd34d"/>
  <rect x="278" y="294" width="20" height="16" rx="2" fill="#fcd34d"/>
  <text x="256" y="430" text-anchor="middle" font-family="system-ui,Arial,sans-serif" font-weight="800" font-size="52" fill="#fff" letter-spacing="6">STAY</text>
</svg>
